<?xml version="1.0" encoding="UTF-8"?>
<svg id="Calque_1" data-name="Calque 1" xmlns="http://www.w3.org/2000/svg" width="81" height="20" viewBox="81 20">
  <defs>
    <style>
      .cls-1 {
        fill: #3e5ca7;
        stroke: #3e5ca7;
        stroke-miterlimit: 10;
      }
    </style>
  </defs>
  <path class="cls-1" d="m.5.857955048c1.0755143774-.1927019351,2.4841204027-.357955048,4.2768759199-.357955048,2.2024339309,0,3.8159659962.5506569831,4.8402488636,1.541988934.9476961016.8811632089,1.5110690453,2.2304502079,1.5110690453,3.8826078838,0,1.6797932248-.4609099237,3.0014446749-1.3316719273,3.9653278036-1.1781510635,1.3492869989-3.0988985225,2.0375615461-5.2758035315,2.0375615461-.6658359637,0-1.2804404173-.0274488221-1.7927555172-.1652531129v7.4348962684H.5V.857955048Zm2.2279628528,8.9492496536c.4866125118.1376175641,1.1013906316.1927019351,1.8439870271.1927019351,2.6890464427,0,4.3281074299-1.4041846432,4.3281074299-3.9651410769,0-2.4507876918-1.6133583991-3.6348215777-4.07194988-3.6348215777-.9732250236,0-1.7159950852.0825331931-2.1001445771.1927019351v7.2145587845Z"/>
  <path class="cls-1" d="m24.6239628875,12.4232455063c0,4.9290242057-3.1756589544,7.0767544937-6.172094457,7.0767544937-3.3550560725,0-5.9416394952-2.6434896268-5.9416394952-6.8566037365,0-4.4609004157,2.7145753646-7.0767544937,6.146391869-7.0767544937,3.5599821124,0,5.9673420832,2.7811071909,5.9673420832,6.8566037365Zm-9.8343659232.1376175641c0,2.9189114817,1.5621268892,5.1217261408,3.7645608201,5.1217261408,2.1512024209,0,3.7649081523-2.1753658369,3.7649081523-5.1768105117,0-2.25789903-1.0499854555-5.1217261408-3.7136766423-5.1217261408-2.6633438546,0-3.81579233,2.6434896268-3.81579233,5.1768105117Z"/>
  <path class="cls-1" d="m27.4654881972,9.4768852024c0-1.3769225477-.0257025881-2.5058720627-.10246302-3.6073727556h1.997507891l.128165608,2.2030013857h.0510578438c.6147781198-1.2667538058,2.0489130671-2.5058720627,4.0978261341-2.5058720627,1.7158214191,0,4.3791652737,1.1015006929,4.3791652737,5.6725698505v7.9579177027h-2.2534917747v-7.6826825745c0-2.1477302881-.7429437278-3.9376922548-2.8686172268-3.9376922548-1.4851927911,0-2.6376412665,1.128949515-3.0217907584,2.4782365139-.10246302.3030574037-.1538681961.7160968227-.1538681961,1.1291362417v8.0130020736h-2.2534917747v-9.7202441206Z"/>
  <path class="cls-1" d="m48.5409157415,19.197129323l-.1792234519-1.6797932248h-.0767604319c-.6915385517,1.0464163219-2.023210479,1.9826639018-3.7904370742,1.9826639018-2.5098229908,0-3.790089742-1.899943982-3.790089742-3.8275235128,0-3.2217821588,2.6633438546-4.9841085767,7.4523612082-4.9564730278v-.2754218549c0-1.1015006929-.2816864718-3.0841645947-2.8168647184-3.0841645947-1.1524484754,0-2.356302127.3855905968-3.2270641306.9913319509l-.5123150998-1.597073305c1.0246301997-.715910096,2.5098229908-1.184033886,4.0721235461-1.184033886,3.7904370742,0,4.7122569217,2.7811071909,4.7122569217,5.4522323666v4.9841085767c0,1.1563983372.0514051761,2.2855345788.2049260399,3.1941466099h-2.0489130671Zm-.3327443157-6.8015193655c-2.4587651469-.055084371-5.2502746096.413039419-5.2502746096,3.0014446749,0,1.5696244828.9732250236,2.3131701277,2.125673499,2.3131701277,1.6137057314,0,2.6379885988-1.1015006929,2.9964355026-2.2304502079.0767604319-.2479730327.128165608-.5232081609.128165608-.770994467v-2.3131701277Z"/>
  <path class="cls-1" d="m64.3928132611,15.5623077452c0,1.3769225477.0257025881,2.5884052559.10246302,3.6348215777h-1.997507891l-.128165608-2.1753658369h-.0510578438c-.5890755317,1.073865144-1.8953922033,2.4782365139-4.0978261341,2.4782365139-1.9464500471,0-4.277049586-1.1565850638-4.277049586-5.8376362368v-7.7928513164h2.253839107v7.3798118974c0,2.5333208849.7172411398,4.2405629318,2.7658068746,4.2405629318,1.5112427115,0,2.5612281669-1.128949515,2.9710802468-2.2030013857.1278182758-.357955048.2045787077-.7984432891.2045787077-1.239118257V5.8695124468h2.253839107v9.6927952984Z"/>
  <path class="cls-1" d="m67.8234141026,16.7188928091c.6658359637.46812379,1.8439870271.9636964021,2.9707329145.9636964021,1.6390609872,0,2.4073599708-.8811632089,2.4073599708-1.9826639018,0-1.1563983371-.6401333756-1.78977524-2.3048969509-2.4506009651-2.2281365189-.8537143868-3.2781219744-2.1753658369-3.2781219744-3.7724391418,0-2.1479170147,1.6133583991-3.9102434326,4.277049586-3.9102434326,1.2549114954,0,2.3559547947.3855905968,3.0474933464.826078838l-.5633729437,1.7623264179c-.4866125118-.3305062259-1.3830771034-.770994467-2.5355255789-.770994467-1.3316719273,0-2.0742683229.826078838-2.0742683229,1.8174107889,0,1.1015006929.7425963956,1.597073305,2.3559547947,2.25789903,2.151376087.8811632089,3.2524193864,2.0377482728,3.2524193864,4.0204121746,0,2.3406189498-1.6901188311,3.9927766258-4.6351491575,3.9927766258-1.3573745154,0-2.6122860108-.357955048-3.4830480143-.9087987578l.5633729437-1.844859611Z"/>
  <path class="cls-1" d="m77.4521593213,17.7653091309c0-1.0189674997.6404807079-1.7348775958,1.5365979672-1.7348775958.8964645916,0,1.5112427114.715910096,1.5112427114,1.7348775958,0,.9911452242-.5890755317,1.7346908691-1.5365979672,1.7346908691-.8964645916,0-1.5112427114-.7435456448-1.5112427114-1.7346908691Z"/>
</svg>