<?xml version="1.0" encoding="UTF-8"?>
<svg id="Calque_1" data-name="Calque 1" xmlns="http://www.w3.org/2000/svg" viewBox="0 0 227.9287109375 52.6840820312">
  <defs>
    <style>
      .cls-1 {
        fill: #335EEA;
        stroke: #335EEA;
        stroke-miterlimit: 10;
        stroke-width: 3px;
      }
    </style>
  </defs>
  <path class="cls-1" d="m1.5,2.4360351562c3.0239257812-.50390625,6.984375-.9360351562,12.0249023438-.9360351562,6.1923828125,0,10.7290039062,1.4399414062,13.6088867188,4.0322265625,2.6645507812,2.3041992188,4.2485351562,5.8325195312,4.2485351562,10.1528320312,0,4.392578125-1.2958984375,7.8486328125-3.744140625,10.369140625-3.3125,3.5283203125-8.712890625,5.328125-14.8334960938,5.328125-1.8720703125,0-3.6000976562-.0717773438-5.0405273438-.4321289062v19.4418945312H1.5V2.4360351562Zm6.2641601562,23.4018554688c1.3681640625.3598632812,3.0966796875.50390625,5.1845703125.50390625,7.560546875,0,12.1689453125-3.671875,12.1689453125-10.3686523438,0-6.4086914062-4.5361328125-9.5048828125-11.4487304688-9.5048828125-2.736328125,0-4.8247070312.2158203125-5.9047851562.50390625v18.8657226562Z"/>
  <path class="cls-1" d="m69.3271484375,32.6787109375c0,12.8891601562-8.9287109375,18.5053710938-17.353515625,18.5053710938-9.4331054688,0-16.7055664062-6.9125976562-16.7055664062-17.9296875,0-11.6650390625,7.6323242188-18.5053710938,17.28125-18.5053710938,10.0092773438,0,16.7778320312,7.2724609375,16.7778320312,17.9296875Zm-27.650390625.3598632812c0,7.6328125,4.3920898438,13.3930664062,10.5844726562,13.3930664062,6.0483398438,0,10.5854492188-5.6884765625,10.5854492188-13.537109375,0-5.904296875-2.9521484375-13.3930664062-10.44140625-13.3930664062-7.48828125,0-10.728515625,6.9125976562-10.728515625,13.537109375Z"/>
  <path class="cls-1" d="m77.31640625,24.9741210938c0-3.6005859375-.072265625-6.552734375-.2880859375-9.4331054688h5.6162109375l.3603515625,5.7607421875h.1435546875c1.728515625-3.3125,5.7607421875-6.552734375,11.521484375-6.552734375,4.82421875,0,12.3125,2.8803710938,12.3125,14.8334960938v20.8095703125h-6.3359375v-20.08984375c0-5.6162109375-2.0888671875-10.296875-8.0654296875-10.296875-4.17578125,0-7.416015625,2.9521484375-8.49609375,6.48046875-.2880859375.7924804688-.4326171875,1.8725585938-.4326171875,2.9526367188v20.9536132812h-6.3359375v-25.41796875Z"/>
  <path class="cls-1" d="m136.572265625,50.3920898438l-.50390625-4.392578125h-.2158203125c-1.9443359375,2.736328125-5.6884765625,5.1845703125-10.6572265625,5.1845703125-7.056640625,0-10.65625-4.9682617188-10.65625-10.0087890625,0-8.4248046875,7.48828125-13.033203125,20.953125-12.9609375v-.7202148438c0-2.8803710938-.7919921875-8.0649414062-7.919921875-8.0649414062-3.240234375,0-6.625,1.0083007812-9.0732421875,2.5922851562l-1.4404296875-4.1762695312c2.880859375-1.8720703125,7.056640625-3.0961914062,11.44921875-3.0961914062,10.6572265625,0,13.2490234375,7.2724609375,13.2490234375,14.2573242188v13.033203125c0,3.0239257812.14453125,5.9765625.576171875,8.3525390625h-5.7607421875Zm-.935546875-17.7856445312c-6.9130859375-.1440429688-14.76171875,1.080078125-14.76171875,7.8486328125,0,4.1044921875,2.736328125,6.048828125,5.9765625,6.048828125,4.537109375,0,7.4169921875-2.8803710938,8.4248046875-5.8325195312.2158203125-.6484375.3603515625-1.3681640625.3603515625-2.0161132812v-6.048828125Z"/>
  <path class="cls-1" d="m181.1416015625,40.8872070312c0,3.6005859375.072265625,6.7685546875.2880859375,9.5048828125h-5.6162109375l-.3603515625-5.6884765625h-.1435546875c-1.65625,2.8081054688-5.3291015625,6.48046875-11.521484375,6.48046875-5.47265625,0-12.025390625-3.0244140625-12.025390625-15.2651367188V15.541015625h6.3369140625v19.2978515625c0,6.6245117188,2.0166015625,11.0888671875,7.7763671875,11.0888671875,4.2490234375,0,7.201171875-2.9521484375,8.353515625-5.7607421875.359375-.9360351562.5751953125-2.087890625.5751953125-3.240234375V15.541015625h6.3369140625v25.3461914062Z"/>
  <path class="cls-1" d="m190.787109375,43.9116210938c1.8720703125,1.2241210938,5.1845703125,2.5200195312,8.3525390625,2.5200195312,4.6083984375,0,6.7685546875-2.3041992188,6.7685546875-5.1845703125,0-3.0239257812-1.7998046875-4.6801757812-6.48046875-6.408203125-6.2646484375-2.232421875-9.216796875-5.6884765625-9.216796875-9.8647460938,0-5.6166992188,4.5361328125-10.2250976562,12.025390625-10.2250976562,3.5283203125,0,6.6240234375,1.0083007812,8.568359375,2.16015625l-1.583984375,4.6083984375c-1.3681640625-.8642578125-3.888671875-2.0161132812-7.12890625-2.0161132812-3.744140625,0-5.83203125,2.16015625-5.83203125,4.7524414062,0,2.8803710938,2.087890625,4.1762695312,6.6240234375,5.904296875,6.048828125,2.3041992188,9.14453125,5.3286132812,9.14453125,10.5131835938,0,6.1206054688-4.751953125,10.4409179688-13.0322265625,10.4409179688-3.81640625,0-7.3447265625-.9360351562-9.79296875-2.3764648438l1.583984375-4.82421875Z"/>
  <path class="cls-1" d="m217.859375,46.6479492188c0-2.6645507812,1.80078125-4.5366210938,4.3203125-4.5366210938,2.5205078125,0,4.2490234375,1.8720703125,4.2490234375,4.5366210938,0,2.591796875-1.65625,4.5361328125-4.3203125,4.5361328125-2.5205078125,0-4.2490234375-1.9443359375-4.2490234375-4.5361328125Z"/>
</svg>