<svg width="100%" height="24px" viewBox="0 0 146 25" fill="none" xmlns="http://www.w3.org/2000/svg"
    aria-label="Monster">
    <path
        d="M52.5061 23.7199H57.2088V14.2015L69.0319 23.9902V4.50614H64.3292V14.0295L52.5061 4.23587V23.7199Z"
        fill="#1b2a4e"></path>
    <path d="M90.914 4.50614V8.97789H95.3366V23.7199H100.192V8.97789H104.614V4.50614H90.914Z"
        fill="#1b2a4e"></path>
    <path
        d="M109.646 4.50614V23.7199H121.813V19.2482H114.423V16.2457H120.231V11.8821H114.423V8.97789H121.69V4.50614H109.646Z"
        fill="#1b2a4e"></path>
    <path
        d="M135.509 10.4177H132.575V5.67076H135.509C137.061 5.67076 138.079 6.71253 138.079 8.04423C138.079 9.20885 137.219 10.4177 135.509 10.4177ZM138.27 14.3292C139.302 13.9509 142.811 12.3882 142.811 7.94103C142.811 4.72727 140.27 1.12039 134.786 1.12039H127.686V23.7199H132.575V14.7961H132.826L139.838 23.7199H145.681L138.27 14.3292Z"
        fill="#1b2a4e"></path>
    <path
        d="M10.9926 11.0319L0 0.00491333V23.7199H4.89435V11.7838L10.9926 17.9066L17.0958 11.7838V23.7199H21.9902V0.00491333L10.9926 11.0319Z"
        fill="#1b2a4e"></path>
    <path
        d="M80.6683 24.0049C76.2752 24.0049 73.9902 21.543 73.6118 21.1695L76.0786 17.6708C76.4619 18.0098 78.2113 19.5577 80.5209 19.5577C82.0884 19.5577 82.5405 18.8059 82.5405 18.2064C82.5405 17.6069 82.0737 17.027 80.4177 16.4128L78.9632 15.8673C76.2801 14.8649 74.5749 12.9975 74.5749 10.2162C74.5749 6.8059 77.3071 4.21622 81.1843 4.21622C84.6781 4.21622 86.6388 5.89681 86.855 6.08354L84.5455 9.6855C84.0737 9.36118 82.7666 8.64865 81.3219 8.64865C79.9705 8.64865 79.3513 9.22359 79.3513 9.91646C79.3513 10.8206 80.1523 11.199 81.5774 11.7346L82.8943 12.226C85.656 13.2531 87.3907 15.371 87.3907 17.9017C87.3907 21.3759 84.6437 24 80.6683 24"
        fill="#1b2a4e"></path>
    <path
        d="M37.2482 19.3759C34.3047 19.3759 32.0393 17.0221 32.0393 14.113C32.0393 11.2039 34.3047 8.85012 37.2482 8.85012C40.1917 8.85012 42.457 11.2039 42.457 14.113C42.457 17.0221 40.1917 19.3759 37.2482 19.3759ZM37.2482 4.22604C31.6659 4.22604 27.258 8.65356 27.258 14.1179C27.258 19.5823 31.6659 24.0098 37.2482 24.0098C42.8305 24.0098 47.2383 19.5823 47.2383 14.1179C47.2383 8.65356 42.8305 4.22604 37.2482 4.22604Z"
        fill="#1b2a4e"></path>
</svg>